<svg width="12" height="12" viewBox="0 0 12 12" fill="none" xmlns="http://www.w3.org/2000/svg">
<path d="M1.83211 0.292893C1.44158 -0.0976311 0.808418 -0.0976311 0.417893 0.292893C0.0273689 0.683418 0.0273689 1.31658 0.417893 1.70711L1.83211 0.292893ZM10.9991 11.8741C11.5513 11.8741 11.9991 11.4263 11.9991 10.8741L11.9991 1.87405C11.9991 1.32177 11.5513 0.874055 10.9991 0.874055C10.4468 0.874055 9.99905 1.32177 9.99905 1.87406L9.99906 9.87406L1.99906 9.87405C1.44677 9.87405 0.999055 10.3218 0.999055 10.8741C0.999055 11.4263 1.44677 11.8741 1.99905 11.8741L10.9991 11.8741ZM0.417893 1.70711L10.2919 11.5812L11.7062 10.1669L1.83211 0.292893L0.417893 1.70711Z" fill="#FF2835"/>
</svg>
