<svg width="34" height="34" viewBox="0 0 34 34" fill="none" xmlns="http://www.w3.org/2000/svg">
<path fill-rule="evenodd" clip-rule="evenodd" d="M7.5978 7.5978C8.00465 7.19095 8.66429 7.19095 9.07114 7.5978L16.6689 15.1956L24.2667 7.5978C24.6736 7.19095 25.3332 7.19095 25.7401 7.5978C26.1469 8.00466 26.1469 8.66429 25.7401 9.07114L18.1423 16.6689L25.7401 24.2667C26.1469 24.6736 26.1469 25.3332 25.7401 25.7401C25.3332 26.1469 24.6736 26.1469 24.2667 25.7401L16.6689 18.1423L9.07114 25.7401C8.66429 26.1469 8.00465 26.1469 7.5978 25.7401C7.19095 25.3332 7.19095 24.6736 7.5978 24.2667L15.1956 16.6689L7.5978 9.07114C7.19095 8.66429 7.19095 8.00465 7.5978 7.5978Z" fill="white"/>
</svg>
