<svg width="22" height="22" viewBox="0 0 22 22" fill="none" xmlns="http://www.w3.org/2000/svg">
<path d="M18.5625 8.25H13.1807C11.978 8.25 11 7.27203 11 6.06934V0.6875C11 0.44 11.0653 0.204531 11.1835 0H4.24316C3.41988 0 2.75 0.669883 2.75 1.49316V20.5068C2.75 21.3301 3.41988 22 4.24316 22H17.7568C18.5801 22 19.25 21.3301 19.25 20.5068V8.06652C19.041 8.18713 18.8038 8.25042 18.5625 8.25ZM8.45152 12.5765C8.72008 12.308 9.15492 12.308 9.42348 12.5765L10.3125 13.4651V9.28125C10.3125 8.90141 10.6202 8.59375 11 8.59375C11.3798 8.59375 11.6875 8.90141 11.6875 9.28125V13.4651L12.5765 12.5765C12.8446 12.308 13.2804 12.308 13.5485 12.5765C13.817 12.8446 13.817 13.2804 13.5485 13.5485L11.486 15.611C11.341 15.7596 11.1323 15.8268 10.9338 15.8095C10.5896 15.7635 10.6981 15.7951 8.45152 13.5485C8.18297 13.2804 8.18297 12.8446 8.45152 12.5765ZM14.4375 18.5625H7.5625C7.18266 18.5625 6.875 18.2548 6.875 17.875C6.875 17.4952 7.18266 17.1875 7.5625 17.1875H14.4375C14.8173 17.1875 15.125 17.4952 15.125 17.875C15.125 18.2548 14.8173 18.5625 14.4375 18.5625ZM13.1807 6.875H18.5625L12.375 0.6875V6.06934C12.375 6.51363 12.7364 6.875 13.1807 6.875Z" fill="#B7ECFF"/>
</svg>
