<svg width="274" height="70" viewBox="0 0 274 70" fill="none" xmlns="http://www.w3.org/2000/svg">
<path d="M84.7626 19.7227H82.9976V10.8975H84.7626V14.4402H87.3975L89.1626 12.6751V10.8975H90.915V13.5577L89.1626 15.3227L90.915 17.0877V19.7227H89.1626V17.9576L87.3975 16.2052H84.7626V19.7227ZM93.8118 15.3227H98.2118V12.6625H95.5642L93.8118 14.4402V15.3227ZM93.8118 19.7227H92.0468V13.5577L94.6817 10.8975H99.9642V19.7227H98.2118V17.0877H93.8118V19.7227ZM102.987 19.7227H101.222V13.545L103.857 10.8975H109.14V19.7227H107.387V12.6625H104.74L102.987 14.4276V19.7227ZM111.015 19.7227V17.9576H114.545L116.31 16.2052H112.78L110.145 13.5577V10.8975H111.91V12.6751L113.663 14.4402H116.31V10.8975H118.063V17.0877L115.428 19.7227H111.015ZM120.968 19.7227H119.203V17.0877L120.968 15.3227L119.203 13.5577V10.8975H120.968V12.6751L122.721 14.4402H123.603V10.8975H125.368V14.4402H126.251L128.016 12.6751V10.8975H129.768V13.5577L128.016 15.3227L129.768 17.0877V19.7227H128.016V17.9576L126.251 16.2052H125.368V19.7227H123.603V16.2052H122.721L120.968 17.9576V19.7227ZM138.076 19.7227H131.899L131.029 18.8527V11.7926L131.899 10.8975H138.076L138.946 11.7926V13.545H137.194V12.6625H132.794V17.9576H137.194V17.0877H138.946V18.8527L138.076 19.7227ZM141.969 19.7227H140.204V10.8975H141.969V14.4402H144.604L146.369 12.6751V10.8975H148.121V13.5577L146.369 15.3227L148.121 17.0877V19.7227H146.369V17.9576L144.604 16.2052H141.969V19.7227ZM151.018 15.3227H155.418V12.6625H152.771L151.018 14.4402V15.3227ZM151.018 19.7227H149.253V13.5577L151.888 10.8975H157.171V19.7227H155.418V17.0877H151.018V19.7227ZM160.32 15.3227H164.72V12.6625H160.32V15.3227ZM160.32 19.7227H158.555V17.9576L159.424 17.0877L158.555 16.2052V11.7926L159.424 10.8975H166.472V19.7227H164.72V17.0877H162.072L160.32 18.8527V19.7227ZM89.919 34.7227H83.7414L82.8715 33.8527V32.0877H84.6365V32.9576H89.0365V31.2052H85.5064V29.4402H89.0365V27.6625H84.6365V28.545H82.8715V26.7926L83.7414 25.8975H89.919L90.7889 26.7926V33.8527L89.919 34.7227ZM93.8118 34.7227H92.0468V28.545L94.6817 25.8975H99.9642V34.7227H98.2118V27.6625H95.5642L93.8118 29.4276V34.7227ZM108.837 34.7227H101.348V25.8975H108.837V27.6625H103.113V29.4402H108.396V31.2052H103.113V32.9576H108.837V34.7227ZM111.858 34.7227H110.093V25.8975H111.858V29.4402H114.493L116.258 27.6751V25.8975H118.01V28.5577L116.258 30.3227L118.01 32.0877V34.7227H116.258V32.9576L114.493 31.2052H111.858V34.7227ZM123.743 34.7227H121.978V27.6625H118.89V25.8975H126.807V27.6625H123.743V34.7227ZM129.58 30.3227H133.98V27.6625H129.58V30.3227ZM129.58 34.7227H127.815V25.8975H134.863L135.733 26.7926V31.2052L134.863 32.0877H129.58V34.7227ZM138.756 32.9576H143.156V27.6625H138.756V32.9576ZM144.038 34.7227H137.86L136.991 33.8527V26.7926L137.86 25.8975H144.038L144.908 26.7926V33.8527L144.038 34.7227ZM150.765 34.7227H149V27.6625H145.911V25.8975H153.828V27.6625H150.765V34.7227ZM162.325 34.7227H154.836V25.8975H162.325V27.6625H156.601V29.4402H161.884V31.2052H156.601V32.9576H162.325V34.7227ZM165.22 34.7227H163.455V32.0877L165.22 30.3227L163.455 28.5577V25.8975H165.22V27.6751L166.972 29.4402H167.855L169.62 27.6751V25.8975H171.372V28.5577L169.62 30.3227L171.372 32.0877V34.7227H169.62V32.9576L167.855 31.2052H166.972L165.22 32.9576V34.7227ZM174.398 34.7227H172.633V25.8975H174.398V29.4402H178.798V25.8975H180.55V34.7227H178.798V31.2052H174.398V34.7227ZM183.696 34.7227H181.931V25.8975H183.696V31.7725L188.096 25.8975H189.849V34.7227H188.096V28.835L183.696 34.7227ZM198.605 34.7227H196.84V31.2052H191.974L191.104 30.3227V25.8975H192.869V29.4402H196.84V25.8975H198.605V34.7227ZM207.475 34.7227H199.986V25.8975H207.475V27.6625H201.752V29.4402H207.034V31.2052H201.752V32.9576H207.475V34.7227ZM215.778 34.7227H209.601L208.731 33.8527V26.7926L209.601 25.8975H215.778L216.648 26.7926V28.545H214.896V27.6625H210.496V32.9576H214.896V32.0877H216.648V33.8527L215.778 34.7227ZM219.671 34.7227H217.906V25.8975H219.671V29.4402H222.306L224.071 27.6751V25.8975H225.824V28.5577L224.071 30.3227L225.824 32.0877V34.7227H224.071V32.9576L222.306 31.2052H219.671V34.7227ZM228.72 30.3227H233.12V27.6625H230.473L228.72 29.4402V30.3227ZM228.72 34.7227H226.955V28.5577L229.59 25.8975H234.873V34.7227H233.12V32.0877H228.72V34.7227ZM238.022 30.3227H242.422V27.6625H238.022V30.3227ZM238.022 34.7227H236.257V32.9576L237.127 32.0877L236.257 31.2052V26.7926L237.127 25.8975H244.174V34.7227H242.422V32.0877H239.774L238.022 33.8527V34.7227ZM84.7626 49.7227H82.9976V40.8975H84.7626V44.4402H87.3975L89.1626 42.6751V40.8975H90.915V43.5577L89.1626 45.3227L90.915 47.0877V49.7227H89.1626V47.9576L87.3975 46.2052H84.7626V49.7227ZM93.9379 47.9576H98.3379V42.6625H93.9379V47.9576ZM99.2204 49.7227H93.0428L92.1729 48.8527V41.7926L93.0428 40.8975H99.2204L100.09 41.7926V48.8527L99.2204 49.7227ZM103.236 49.7227H101.471V40.8975H103.236L106.313 45.1714L109.439 40.8975H111.141V49.7227H109.376V43.772L107.069 47.1634H105.594L103.236 43.772V49.7227ZM114.295 49.7227H112.53V40.8975H120.448V49.7227H118.695V42.6625H114.295V49.7227ZM123.468 45.3227H127.868V42.6625H125.22L123.468 44.4402V45.3227ZM123.468 49.7227H121.703V43.5577L124.338 40.8975H129.62V49.7227H127.868V47.0877H123.468V49.7227ZM132.769 49.7227H131.004V40.8975H132.769V44.4402H137.169V40.8975H138.921V49.7227H137.169V46.2052H132.769V49.7227ZM142.067 49.7227H140.302V40.8975H142.067V46.7725L146.467 40.8975H148.22V49.7227H146.467V43.835L142.067 49.7227ZM151.366 45.3227H155.766V42.6625H151.366V45.3227ZM151.366 49.7227H149.601V47.9576L150.471 47.0877L149.601 46.2052V41.7926L150.471 40.8975H157.518V49.7227H155.766V47.0877H153.118L151.366 48.8527V49.7227Z" fill="#1D3E79"/>
<path d="M0 30.2564C0 19.1625 0 13.6155 3.44644 10.1691C6.89287 6.72266 12.4398 6.72266 23.5337 6.72266H40.3436C51.4375 6.72266 56.9844 6.72266 60.4309 10.1691C63.8773 13.6155 63.8773 19.1625 63.8773 30.2564V41.1828C63.8773 47.5222 63.8773 50.6918 61.9079 52.6612C59.9385 54.6306 56.7688 54.6306 50.4295 54.6306H13.4479C7.10847 54.6306 3.93879 54.6306 1.96939 52.6612C0 50.6918 0 47.5222 0 41.1828V30.2564Z" fill="url(#paint0_linear_225_4811)"/>
<path d="M14.2891 33.0916L35.4448 0C17.1098 36.4902 37.7955 33.0916 50.4302 26.8311L18.6965 69.7607C22.2225 64.0964 30.5085 50.0846 35.4448 39.3522C40.3812 28.6198 23.3978 30.7066 14.2891 33.0916Z" fill="white"/>
<defs>
<linearGradient id="paint0_linear_225_4811" x1="31.9387" y1="6.72266" x2="31.9387" y2="54.6306" gradientUnits="userSpaceOnUse">
<stop stop-color="#28B9EC"/>
<stop offset="1" stop-color="#288EEC"/>
</linearGradient>
</defs>
</svg>
